0
SECTION
2
HEADER
9
$INSUNITS
70
4
9
$ACADVER
1
AC1014
9
$HANDSEED
5
FFFF
0
ENDSEC
0
SECTION
2
TABLES
0
TABLE
2
VPORT
5
8
100
AcDbSymbolTable
0
ENDTAB
0
TABLE
2
LTYPE
5
5
100
AcDbSymbolTable
0
LTYPE
5
14
100
AcDbSymbolTableRecord
100
AcDbLinetypeTableRecord
2
BYBLOCK
70
0
0
LTYPE
5
15
100
AcDbSymbolTableRecord
100
AcDbLinetypeTableRecord
2
BYLAYER
70
0
0
ENDTAB
0
TABLE
2
LAYER
5
2
100
AcDbSymbolTable
70
2
0
LAYER
5
50
100
AcDbSymbolTableRecord
100
AcDbLayerTableRecord
2
0
70
0
6
CONTINUOUS
0
ENDTAB
0
TABLE
2
STYLE
5
3
100
AcDbSymbolTable
70
1
0
STYLE
5
11
100
AcDbSymbolTableRecord
100
AcDbTextStyleTableRecord
2
STANDARD
70
0
0
ENDTAB
0
TABLE
2
VIEW
5
6
100
AcDbSymbolTable
70
0
0
ENDTAB
0
TABLE
2
UCS
5
7
100
AcDbSymbolTable
70
0
0
ENDTAB
0
TABLE
2
APPID
5
9
100
AcDbSymbolTable
70
2
0
APPID
5
12
100
AcDbSymbolTableRecord
100
AcDbRegAppTableRecord
2
ACAD
70
0
0
ENDTAB
0
TABLE
2
DIMSTYLE
5
A
100
AcDbSymbolTable
70
1
0
ENDTAB
0
TABLE
2
BLOCK_RECORD
5
1
100
AcDbSymbolTable
70
1
0
BLOCK_RECORD
5
1F
100
AcDbSymbolTableRecord
100
AcDbBlockTableRecord
2
*MODEL_SPACE
0
BLOCK_RECORD
5
1B
100
AcDbSymbolTableRecord
100
AcDbBlockTableRecord
2
*PAPER_SPACE
0
ENDTAB
0
ENDSEC
0
SECTION
2
BLOCKS
0
BLOCK
5
20
100
AcDbEntity
100
AcDbBlockBegin
2
*MODEL_SPACE
0
ENDBLK
5
21
100
AcDbEntity
100
AcDbBlockEnd
0
BLOCK
5
1C
100
AcDbEntity
100
AcDbBlockBegin
2
*PAPER_SPACE
0
ENDBLK
5
1D
100
AcDbEntity
100
AcDbBlockEnd
0
ENDSEC
0
SECTION
2
ENTITIES
0
CIRCLE
5
100
100
AcDbEntity
8
0
100
AcDbCircle
10
169.84586186837254
20
78.961408720469208
30
0
40
1.9999999999999929
0
CIRCLE
5
101
100
AcDbEntity
8
0
100
AcDbCircle
10
114.34586186837254
20
104.91668699995401
30
0
40
1.9999999999999929
0
CIRCLE
5
102
100
AcDbEntity
8
0
100
AcDbCircle
10
25.345861868372555
20
79.91668699995401
30
0
40
1.9999999999999929
0
CIRCLE
5
103
100
AcDbEntity
8
0
100
AcDbCircle
10
-0.15413813162744816
20
58.961408720469208
30
0
40
1.9999999999999996
0
CIRCLE
5
104
100
AcDbEntity
8
0
100
AcDbCircle
10
25.345861868372555
20
104.91668699995401
30
0
40
1.9999999999999973
0
CIRCLE
5
105
100
AcDbEntity
8
0
100
AcDbCircle
10
169.84586186837254
20
58.961408720469208
30
0
40
1.9999999999999929
0
CIRCLE
5
106
100
AcDbEntity
8
0
100
AcDbCircle
10
119.03961363605517
20
170.96040931119211
30
0
40
1.9999999999999929
0
CIRCLE
5
107
100
AcDbEntity
8
0
100
AcDbCircle
10
114.34586186837254
20
79.91668699995401
30
0
40
1.9999999999999929
0
CIRCLE
5
108
100
AcDbEntity
8
0
100
AcDbCircle
10
-30.154138131627448
20
58.961408720469208
30
0
40
2.0000000000000018
0
CIRCLE
5
109
100
AcDbEntity
8
0
100
AcDbCircle
10
69.845861868372552
20
58.961408720469208
30
0
40
2.0000000000000018
0
CIRCLE
5
110
100
AcDbEntity
8
0
100
AcDbCircle
10
-30.154138131627448
20
78.961408720469208
30
0
40
2.0000000000000018
0
CIRCLE
5
111
100
AcDbEntity
8
0
100
AcDbCircle
10
139.84586186837254
20
58.961408720469208
30
0
40
2.0000000000000107
0
CIRCLE
5
112
100
AcDbEntity
8
0
100
AcDbCircle
10
20.652117980562249
20
170.96040931119211
30
0
40
2.0000000000000107
0
CIRCLE
5
113
100
AcDbEntity
8
0
100
AcDbCircle
10
158.84586186837257
20
104.91668699995401
30
0
40
1.7499999999999893
0
CIRCLE
5
114
100
AcDbEntity
8
0
100
AcDbCircle
10
128.84586186837257
20
-21.038591279530788
30
0
40
2.0999999999999908
0
CIRCLE
5
115
100
AcDbEntity
8
0
100
AcDbCircle
10
128.84586186837257
20
38.961408720469215
30
0
40
2.0999999999999908
0
CIRCLE
5
116
100
AcDbEntity
8
0
100
AcDbCircle
10
136.94586186837262
20
-6.039239977462155
30
0
40
1.9999999999999929
0
CIRCLE
5
117
100
AcDbEntity
8
0
100
AcDbCircle
10
136.94586186837262
20
23.960760022537848
30
0
40
2.0000000000000107
0
CIRCLE
5
118
100
AcDbEntity
8
0
100
AcDbCircle
10
166.84586186837265
20
-6.039239977462155
30
0
40
1.9999999999999929
0
CIRCLE
5
119
100
AcDbEntity
8
0
100
AcDbCircle
10
166.84586186837265
20
23.960760022537848
30
0
40
1.9999999999999929
0
CIRCLE
5
120
100
AcDbEntity
8
0
100
AcDbCircle
10
69.845862151434503
20
140.96040931119211
30
0
40
15.750000000000002
0
CIRCLE
5
121
100
AcDbEntity
8
0
100
AcDbCircle
10
70.013561257525225
20
121.26112310560043
30
0
40
2.2500000000000053
0
CIRCLE
5
122
100
AcDbEntity
8
0
100
AcDbCircle
10
52.701930307926347
20
150.66482072792144
30
0
40
2.2500000000000053
0
CIRCLE
5
123
100
AcDbEntity
8
0
100
AcDbCircle
10
86.822094888851908
20
150.95528410005448
30
0
40
2.2499999999999964
0
CIRCLE
5
124
100
AcDbEntity
8
0
100
AcDbCircle
10
69.845861868372552
20
104.91668699995401
30
0
40
1.749999999999998
0
CIRCLE
5
125
100
AcDbEntity
8
0
100
AcDbCircle
10
69.845861868372552
20
8.9614087204692119
30
0
40
1.5000000000000036
0
CIRCLE
5
126
100
AcDbEntity
8
0
100
AcDbCircle
10
69.845861868372552
20
22.611408720469214
30
0
40
1.4999999999999947
0
CIRCLE
5
127
100
AcDbEntity
8
0
100
AcDbCircle
10
69.845861868372552
20
-4.6885912795307894
30
0
40
1.5000000000000036
0
CIRCLE
5
128
100
AcDbEntity
8
0
100
AcDbCircle
10
56.195861868372546
20
8.9614087204692119
30
0
40
1.5000000000000036
0
CIRCLE
5
129
100
AcDbEntity
8
0
100
AcDbCircle
10
83.495861868372558
20
8.9614087204692119
30
0
40
1.5000000000000036
0
CIRCLE
5
130
100
AcDbEntity
8
0
100
AcDbCircle
10
2.7459997918528645
20
23.960760022537848
30
0
40
2.0000000000000018
0
CIRCLE
5
131
100
AcDbEntity
8
0
100
AcDbCircle
10
2.7459997918528645
20
-6.039239977462155
30
0
40
2.0000000000000018
0
CIRCLE
5
132
100
AcDbEntity
8
0
100
AcDbCircle
10
-27.154000208147131
20
23.960760022537848
30
0
40
1.9999999999999996
0
CIRCLE
5
133
100
AcDbEntity
8
0
100
AcDbCircle
10
-27.154000208147131
20
-6.039239977462155
30
0
40
2.0000000000000009
0
LINE
5
134
100
AcDbEntity
8
0
100
AcDbLine
10
119.03961363605517
20
180.96040931119211
30
0
11
20.652117980562252
21
180.96040931119211
31
0
0
ARC
5
135
100
AcDbEntity
8
0
100
AcDbCircle
10
20.652117980562249
20
170.96040931119211
30
0
40
10
100
AcDbArc
50
89.999999999999986
51
141.34026020536916
0
LINE
5
136
100
AcDbEntity
8
0
100
AcDbLine
10
12.843422422012651
20
177.20735045657585
30
0
11
-37.962695558549619
21
113.69954742322503
31
0
0
ARC
5
137
100
AcDbEntity
8
0
100
AcDbCircle
10
-30.154000000000025
20
107.45260627784133
30
0
40
10
100
AcDbArc
50
141.34026020536933
51
180
0
LINE
5
138
100
AcDbEntity
8
0
100
AcDbLine
10
-40.154000208147131
20
107.45260627784131
30
0
11
-40.154000208147131
21
-29.039238953058355
31
0
0
ARC
5
139
100
AcDbEntity
8
0
100
AcDbCircle
10
-30.153999999999979
20
-29.039238953058355
30
0
40
10
100
AcDbArc
50
180
51
270
0
LINE
5
140
100
AcDbEntity
8
0
100
AcDbLine
10
-30.153999999999982
20
-39.039239977462159
30
0
11
169.84586166022547
21
-39.039239977462159
31
0
0
ARC
5
141
100
AcDbEntity
8
0
100
AcDbCircle
10
169.84586166022547
20
-29.039238953058355
30
0
40
10
100
AcDbArc
50
-90
51
0
0
LINE
5
142
100
AcDbEntity
8
0
100
AcDbLine
10
179.84586186837254
20
-29.039238953058351
30
0
11
179.84586186837254
21
107.45259842403186
31
0
0
ARC
5
143
100
AcDbEntity
8
0
100
AcDbCircle
10
169.84586166022538
20
107.45259842403186
30
0
40
10
100
AcDbArc
50
0
51
38.659807876955966
0
LINE
5
144
100
AcDbEntity
8
0
100
AcDbLine
10
177.65454979577456
20
113.6995488481775
30
0
11
126.84830177160434
21
177.20735973533777
31
0
0
ARC
5
145
100
AcDbEntity
8
0
100
AcDbCircle
10
119.03961363605517
20
170.96040931119211
30
0
40
10
100
AcDbArc
50
38.659807876956087
51
90
0
CIRCLE
5
146
100
AcDbEntity
8
0
100
AcDbCircle
10
10.845861868372552
20
38.961408720469215
30
0
40
2.1000000000000041
0
CIRCLE
5
147
100
AcDbEntity
8
0
100
AcDbCircle
10
10.845861868372552
20
-21.038591279530788
30
0
40
2.0999999999999996
0
CIRCLE
5
148
100
AcDbEntity
8
0
100
AcDbCircle
10
-19.154138131627448
20
104.91668699995401
30
0
40
1.7500000000000013
0
ENDSEC
0
SECTION
2
OBJECTS
0
DICTIONARY
5
C
100
AcDbDictionary
3
ACAD_GROUP
350
D
3
ACAD_MLINESTYLE
350
17
0
DICTIONARY
5
D
100
AcDbDictionary
0
DICTIONARY
5
1A
330
C
100
AcDbDictionary
0
DICTIONARY
5
17
100
AcDbDictionary
0
ENDSEC
0
EOF
